HIERARCHY
ROOT Hips
{
	OFFSET 0.000000 100.481300 0.000000
	CHANNELS 6 Xposition Yposition Zposition Xrotation Yrotation Zrotation
	JOINT Spine
	{
		OFFSET -0.279200 12.230698 -2.892100
		CHANNELS 3 Xrotation Yrotation Zrotation
		JOINT Spine1
		{
			OFFSET -0.325700 14.269203 -3.374200
			CHANNELS 3 Xrotation Yrotation Zrotation
			JOINT Spine2
			{
				OFFSET -0.372300 16.307602 -0.352600
				CHANNELS 3 Xrotation Yrotation Zrotation
				JOINT Neck
				{
					OFFSET -0.418800 17.814194 8.416900
					CHANNELS 3 Xrotation Yrotation Zrotation
					JOINT Head
					{
						OFFSET 0.000000 7.031097 3.806800
						CHANNELS 3 Xrotation Yrotation Zrotation
						JOINT HeadTop_End
						{
							OFFSET 0.000000 24.646606 12.978600
							CHANNELS 3 Xrotation Yrotation Zrotation
							End Site
							{
								OFFSET 0.000000 27.854965 0.000000
							}
						}
					}
				}
				JOINT LeftShoulder
				{
					OFFSET 16.952999 14.495407 -7.737500
					CHANNELS 3 Xrotation Yrotation Zrotation
					JOINT LeftArm
					{
						OFFSET 9.308998 -2.777710 0.208600
						CHANNELS 3 Xrotation Yrotation Zrotation
						JOINT LeftForeArm
						{
							OFFSET 29.972298 0.000000 0.000000
							CHANNELS 3 Xrotation Yrotation Zrotation
							JOINT LeftHand
							{
								OFFSET 26.026505 0.000000 0.000000
								CHANNELS 3 Xrotation Yrotation Zrotation
								JOINT LeftHandThumb1
								{
									OFFSET 12.240501 -7.147949 9.207150
									CHANNELS 3 Xrotation Yrotation Zrotation
									JOINT LeftHandThumb2
									{
										OFFSET 4.138618 -2.389435 2.389433
										CHANNELS 3 Xrotation Yrotation Zrotation
										JOINT LeftHandThumb3
										{
											OFFSET 2.726913 -1.574387 1.574386
											CHANNELS 3 Xrotation Yrotation Zrotation
											JOINT LeftHandThumb4
											{
												OFFSET 3.941010 -2.275345 2.275342
												CHANNELS 3 Xrotation Yrotation Zrotation
												End Site
												{
													OFFSET -0.005798 5.087799 0.009903
												}
											}
										}
									}
								}
								JOINT LeftHandIndex1
								{
									OFFSET 24.424698 -1.985611 5.953459
									CHANNELS 3 Xrotation Yrotation Zrotation
									JOINT LeftHandIndex2
									{
										OFFSET 6.426697 0.000000 0.000000
										CHANNELS 3 Xrotation Yrotation Zrotation
										JOINT LeftHandIndex3
										{
											OFFSET 5.337898 0.000000 0.000000
											CHANNELS 3 Xrotation Yrotation Zrotation
											JOINT LeftHandIndex4
											{
												OFFSET 4.409401 0.000000 0.000000
												CHANNELS 3 Xrotation Yrotation Zrotation
												End Site
												{
													OFFSET 0.000000 4.409363 0.014373
												}
											}
										}
									}
								}
								JOINT LeftHandMiddle1
								{
									OFFSET 23.810104 0.000000 0.000000
									CHANNELS 3 Xrotation Yrotation Zrotation
									JOINT LeftHandMiddle2
									{
										OFFSET 7.176498 0.000000 0.000000
										CHANNELS 3 Xrotation Yrotation Zrotation
										JOINT LeftHandMiddle3
										{
											OFFSET 6.774902 0.000000 0.000000
											CHANNELS 3 Xrotation Yrotation Zrotation
											JOINT LeftHandMiddle4
											{
												OFFSET 5.403328 0.000000 0.000000
												CHANNELS 3 Xrotation Yrotation Zrotation
												End Site
												{
													OFFSET -0.027702 5.403244 0.017414
												}
											}
										}
									}
								}
								JOINT LeftHandRing1
								{
									OFFSET 22.908401 -0.839279 -6.020567
									CHANNELS 3 Xrotation Yrotation Zrotation
									JOINT LeftHandRing2
									{
										OFFSET 6.337502 0.000000 0.000000
										CHANNELS 3 Xrotation Yrotation Zrotation
										JOINT LeftHandRing3
										{
											OFFSET 5.779297 0.000000 0.000000
											CHANNELS 3 Xrotation Yrotation Zrotation
											JOINT LeftHandRing4
											{
												OFFSET 4.965698 0.000000 0.000000
												CHANNELS 3 Xrotation Yrotation Zrotation
												End Site
												{
													OFFSET 0.000000 4.965668 0.016186
												}
											}
										}
									}
								}
								JOINT LeftHandPinky1
								{
									OFFSET 20.037003 -1.530319 -10.950146
									CHANNELS 3 Xrotation Yrotation Zrotation
									JOINT LeftHandPinky2
									{
										OFFSET 5.254700 0.000000 0.000000
										CHANNELS 3 Xrotation Yrotation Zrotation
										JOINT LeftHandPinky3
										{
											OFFSET 4.810204 0.000000 0.000000
											CHANNELS 3 Xrotation Yrotation Zrotation
											JOINT LeftHandPinky4
											{
												OFFSET 3.647202 0.000000 0.000000
												CHANNELS 3 Xrotation Yrotation Zrotation
												End Site
												{
													OFFSET 0.000000 3.647186 0.011889
												}
											}
										}
									}
								}
							}
						}
					}
				}
				JOINT RightShoulder
				{
					OFFSET -15.141001 14.495407 -7.737500
					CHANNELS 3 Xrotation Yrotation Zrotation
					JOINT RightArm
					{
						OFFSET -9.308998 -2.777710 0.208500
						CHANNELS 3 Xrotation Yrotation Zrotation
						JOINT RightForeArm
						{
							OFFSET -29.972300 0.000000 0.000000
							CHANNELS 3 Xrotation Yrotation Zrotation
							JOINT RightHand
							{
								OFFSET -26.026505 0.000000 0.000000
								CHANNELS 3 Xrotation Yrotation Zrotation
								JOINT RightHandThumb1
								{
									OFFSET -12.240601 -7.148026 9.207092
									CHANNELS 3 Xrotation Yrotation Zrotation
									JOINT RightHandThumb2
									{
										OFFSET -4.138618 -2.389435 2.389433
										CHANNELS 3 Xrotation Yrotation Zrotation
										JOINT RightHandThumb3
										{
											OFFSET -2.726974 -1.574417 1.574421
											CHANNELS 3 Xrotation Yrotation Zrotation
											JOINT RightHandThumb4
											{
												OFFSET -3.941010 -2.275345 2.275343
												CHANNELS 3 Xrotation Yrotation Zrotation
												End Site
												{
													OFFSET 0.005814 5.087799 0.009927
												}
											}
										}
									}
								}
								JOINT RightHandIndex1
								{
									OFFSET -24.424698 -1.985657 5.953444
									CHANNELS 3 Xrotation Yrotation Zrotation
									JOINT RightHandIndex2
									{
										OFFSET -6.426697 0.000000 0.000000
										CHANNELS 3 Xrotation Yrotation Zrotation
										JOINT RightHandIndex3
										{
											OFFSET -5.337898 0.000000 0.000000
											CHANNELS 3 Xrotation Yrotation Zrotation
											JOINT RightHandIndex4
											{
												OFFSET -4.409401 0.000000 0.000000
												CHANNELS 3 Xrotation Yrotation Zrotation
												End Site
												{
													OFFSET 0.000000 4.409363 0.014408
												}
											}
										}
									}
								}
								JOINT RightHandMiddle1
								{
									OFFSET -23.810097 0.000000 0.000000
									CHANNELS 3 Xrotation Yrotation Zrotation
									JOINT RightHandMiddle2
									{
										OFFSET -7.176498 0.000000 0.000000
										CHANNELS 3 Xrotation Yrotation Zrotation
										JOINT RightHandMiddle3
										{
											OFFSET -6.774902 0.000000 0.000000
											CHANNELS 3 Xrotation Yrotation Zrotation
											JOINT RightHandMiddle4
											{
												OFFSET -5.403328 0.000000 0.000000
												CHANNELS 3 Xrotation Yrotation Zrotation
												End Site
												{
													OFFSET 0.027702 5.403244 0.017457
												}
											}
										}
									}
								}
								JOINT RightHandRing1
								{
									OFFSET -22.908302 -0.839325 -6.020576
									CHANNELS 3 Xrotation Yrotation Zrotation
									JOINT RightHandRing2
									{
										OFFSET -6.337502 0.000000 0.000000
										CHANNELS 3 Xrotation Yrotation Zrotation
										JOINT RightHandRing3
										{
											OFFSET -5.779297 0.000000 0.000000
											CHANNELS 3 Xrotation Yrotation Zrotation
											JOINT RightHandRing4
											{
												OFFSET -4.965698 0.000000 0.000000
												CHANNELS 3 Xrotation Yrotation Zrotation
												End Site
												{
													OFFSET 0.000000 4.965668 0.016226
												}
											}
										}
									}
								}
								JOINT RightHandPinky1
								{
									OFFSET -20.037003 -1.530334 -10.950259
									CHANNELS 3 Xrotation Yrotation Zrotation
									JOINT RightHandPinky2
									{
										OFFSET -5.254700 0.000000 0.000000
										CHANNELS 3 Xrotation Yrotation Zrotation
										JOINT RightHandPinky3
										{
											OFFSET -4.810204 0.000000 0.000000
											CHANNELS 3 Xrotation Yrotation Zrotation
											JOINT RightHandPinky4
											{
												OFFSET -3.647202 0.000000 0.000000
												CHANNELS 3 Xrotation Yrotation Zrotation
												End Site
												{
													OFFSET 0.000000 3.647186 0.011917
												}
											}
										}
									}
								}
							}
						}
					}
				}
			}
		}
	}
	JOINT LeftUpLeg
	{
		OFFSET 15.427100 -6.655098 0.678600
		CHANNELS 3 Xrotation Yrotation Zrotation
		JOINT LeftLeg
		{
			OFFSET 4.081073 -39.591068 13.024000
			CHANNELS 3 Xrotation Yrotation Zrotation
			JOINT LeftFoot
			{
				OFFSET -4.081074 -37.707932 -15.979700
				CHANNELS 3 Xrotation Yrotation Zrotation
				JOINT LeftToeBase
				{
					OFFSET 5.346399 -15.068900 20.645000
					CHANNELS 3 Xrotation Yrotation Zrotation
					JOINT LeftToe_End
					{
						OFFSET 2.754700 0.931300 11.300900
						CHANNELS 3 Xrotation Yrotation Zrotation
						End Site
						{
							OFFSET 0.000000 11.669021 0.000000
						}
					}
				}
			}
		}
	}
	JOINT RightUpLeg
	{
		OFFSET -15.569500 -6.655098 0.678600
		CHANNELS 3 Xrotation Yrotation Zrotation
		JOINT RightLeg
		{
			OFFSET -4.081825 -39.591045 13.023800
			CHANNELS 3 Xrotation Yrotation Zrotation
			JOINT RightFoot
			{
				OFFSET 4.081824 -37.707954 -15.979600
				CHANNELS 3 Xrotation Yrotation Zrotation
				JOINT RightToeBase
				{
					OFFSET -5.346400 -15.068900 20.645000
					CHANNELS 3 Xrotation Yrotation Zrotation
					JOINT RightToe_End
					{
						OFFSET -2.754700 0.931300 11.300900
						CHANNELS 3 Xrotation Yrotation Zrotation
						End Site
						{
							OFFSET 0.000000 11.669021 0.000000
						}
					}
				}
			}
		}
	}
}
MOTION
Frames: 4
Frame Time: 0.033333
0.976901 85.947601 -0.193939 -4.647031 -37.790221 -2.841598 6.844355 11.178458 -2.461045 2.731211 4.271149 -0.445017 2.705803 4.287989 -0.435391 8.158856 -0.441930 1.054405 5.778329 5.244393 -7.097387 -0.000002 0.000000 0.000000 0.304043 1.531547 -1.248146 -41.400570 -26.647537 -57.957563 0.000022 -120.740942 0.000035 9.004938 -13.741189 27.118306 4.891681 7.994775 1.884007 10.475090 36.544350 -16.206442 18.107192 67.043218 3.186293 -0.000001 -0.000000 -0.000001 7.775676 6.956314 -86.152700 10.250111 6.003566 -119.372077 9.029913 6.538644 -108.236423 0.000000 -0.000000 0.000001 6.554757 6.873495 -87.274313 9.404162 6.404064 -111.556004 9.208624 6.477424 -109.813063 -0.000001 0.000000 0.000000 3.127857 6.869486 -89.819631 9.007626 6.545903 -108.040745 8.561885 6.673739 -104.169933 0.000001 -0.000000 -0.000000 1.160377 7.315410 -94.148407 8.017692 2.700471 -99.510699 10.792529 5.665880 -124.703955 -0.000001 -0.000000 0.000002 1.420811 5.021596 -2.647679 -49.235183 27.089773 63.853881 -0.000066 119.991261 0.000078 -7.062962 18.452839 -28.349332 2.101976 -10.083015 3.633756 25.660797 -30.716693 6.844858 36.126312 -53.497853 18.680844 -0.000000 0.000001 0.000005 9.556172 -7.137705 86.157932 10.350206 -6.061986 119.375560 9.118080 -6.602322 108.238868 0.000000 0.000000 -0.000001 6.610155 -6.940050 87.289428 9.494167 -6.467128 111.542604 9.295805 -6.532965 109.815338 -0.000000 0.000000 0.000002 1.946420 -7.142805 92.181148 8.379090 -6.800015 101.912344 8.643644 -6.731595 104.171655 0.000000 0.000000 -0.000001 -2.850690 -7.674970 94.127493 8.100966 -6.852418 99.572663 10.897919 -5.720985 124.707780 0.000000 0.000000 -0.000002 -30.845886 -3.651981 10.295394 29.108750 0.298131 2.662197 6.091625 -0.115514 -13.157034 -0.000026 -0.000005 0.000001 -0.000000 0.000000 -0.000000 11.854249 -15.214955 -9.634270 24.944361 -2.897654 -0.875944 -31.138511 -5.790655 14.051783 -0.969717 -0.000003 0.000001 -0.000000 0.000000 0.000000 
0.935345 85.982315 -0.166950 -4.594321 -37.742857 -2.838889 6.835024 11.182166 -2.495019 2.724474 4.273484 -0.460637 2.699017 4.290330 -0.451204 8.079567 -0.435115 1.011199 5.721416 5.205594 -7.031635 0.000002 0.000000 -0.000000 0.303047 1.569691 -1.310538 -41.656661 -26.931743 -57.964045 -0.000003 -120.770681 0.000007 8.843478 -13.641249 26.834551 4.891681 7.994775 1.884005 10.475090 36.544353 -16.206447 18.107195 67.043211 3.186296 0.000001 0.000000 0.000000 7.775676 6.956315 -86.152694 10.250112 6.003566 -119.372077 9.029913 6.538644 -108.236423 0.000000 0.000000 -0.000001 6.554758 6.873495 -87.274313 9.404162 6.404065 -111.556011 9.208624 6.477424 -109.813063 -0.000001 -0.000000 0.000001 3.127858 6.869486 -89.819631 9.007626 6.545905 -108.040745 8.561886 6.673739 -104.169927 0.000002 -0.000000 0.000003 1.160378 7.315410 -94.148400 8.017693 2.700472 -99.510699 10.792525 5.665878 -124.703955 0.000001 -0.000000 0.000002 1.399368 4.914198 -2.687758 -49.334921 27.176040 64.058603 0.000025 119.915295 0.000000 -6.723085 18.537313 -28.253692 2.101977 -10.083016 3.633756 25.660797 -30.716686 6.844857 36.126301 -53.497853 18.680842 -0.000003 -0.000000 0.000005 9.556173 -7.137705 86.157932 10.350206 -6.061989 119.375560 9.118081 -6.602323 108.238868 0.000001 0.000000 -0.000000 6.610156 -6.940051 87.289428 9.494168 -6.467130 111.542604 9.295809 -6.532967 109.815331 -0.000000 0.000000 0.000001 1.946420 -7.142807 92.181148 8.379090 -6.800015 101.912337 8.643644 -6.731595 104.171655 -0.000000 -0.000000 -0.000003 -2.850690 -7.674969 94.127493 8.100967 -6.852417 99.572663 10.897920 -5.720985 124.707780 -0.000000 -0.000000 0.000003 -30.833393 -3.690622 10.329943 29.059593 0.273189 2.627500 6.086103 -0.115388 -13.145300 -0.000058 0.000012 0.000003 0.000000 0.000000 0.000000 11.951842 -15.220170 -9.550081 24.794743 -2.992235 -0.876687 -31.089792 -5.802536 14.084507 -0.979662 -0.000041 -0.000001 -0.000000 0.000002 0.000000 
0.869586 85.982300 -0.140349 -4.524358 -37.766431 -2.819843 6.824256 11.178855 -2.546515 2.718179 4.273039 -0.486367 2.692946 4.289757 -0.477035 8.000847 -0.426793 1.011648 5.748368 5.224428 -6.992370 -0.000002 0.000000 0.000000 0.305965 1.577359 -1.380304 -41.946299 -27.182556 -58.003947 -0.000019 -120.770285 -0.000030 8.685526 -13.523303 26.581370 4.891680 7.994775 1.884007 10.475089 36.544350 -16.206441 18.107190 67.043211 3.186295 -0.000002 0.000000 -0.000000 7.775675 6.956315 -86.152694 10.250112 6.003566 -119.372077 9.029913 6.538643 -108.236423 -0.000001 0.000000 -0.000001 6.554755 6.873494 -87.274313 9.404163 6.404066 -111.556004 9.208623 6.477424 -109.813056 -0.000002 0.000000 -0.000001 3.127856 6.869486 -89.819631 9.007626 6.545905 -108.040745 8.561887 6.673739 -104.169933 0.000001 -0.000001 -0.000001 1.160377 7.315408 -94.148400 8.017692 2.700472 -99.510699 10.792527 5.665879 -124.703955 -0.000002 0.000000 -0.000001 1.384360 4.842096 -2.731275 -49.462990 27.278032 64.278992 0.000068 119.875981 -0.000076 -6.442789 18.540487 -28.384816 2.101977 -10.083016 3.633756 25.660794 -30.716693 6.844862 36.126301 -53.497849 18.680841 0.000004 0.000001 0.000004 9.556171 -7.137704 86.157932 10.350207 -6.061986 119.375560 9.118079 -6.602323 108.238862 0.000000 0.000001 -0.000001 6.610155 -6.940051 87.289428 9.494165 -6.467129 111.542604 9.295807 -6.532966 109.815338 -0.000001 -0.000000 0.000003 1.946419 -7.142807 92.181155 8.379090 -6.800016 101.912344 8.643643 -6.731594 104.171655 -0.000000 0.000000 -0.000000 -2.850690 -7.674970 94.127493 8.100966 -6.852418 99.572663 10.897919 -5.720985 124.707780 -0.000000 0.000000 -0.000000 -30.852473 -3.700649 10.425780 29.094827 0.266010 2.567814 6.021695 -0.106363 -13.150901 -0.000014 -0.000003 -0.000003 0.000000 0.000000 -0.000000 11.980624 -15.211577 -9.500878 24.738248 -3.033339 -0.855764 -31.099518 -5.809034 14.081963 -0.990266 -0.000000 0.000003 -0.000000 -0.000000 -0.000000 
0.778923 85.970749 -0.110179 -4.424524 -37.819714 -2.779577 6.801060 11.177893 -2.608406 2.706731 4.273563 -0.519723 2.681957 4.289965 -0.510497 7.922378 -0.413662 1.057832 5.883533 5.318909 -6.987226 -0.000001 -0.000001 0.000000 0.311831 1.556424 -1.445264 -42.222532 -27.391815 -58.078471 0.000000 -120.737554 -0.000005 8.507358 -13.420236 26.383187 4.891680 7.994775 1.884007 10.475090 36.544353 -16.206441 18.107188 67.043211 3.186289 0.000000 -0.000001 0.000002 7.775675 6.956314 -86.152694 10.250111 6.003566 -119.372077 9.029913 6.538644 -108.236423 0.000001 0.000000 -0.000000 6.554756 6.873496 -87.274313 9.404163 6.404066 -111.556004 9.208623 6.477424 -109.813056 0.000001 -0.000000 0.000000 3.127856 6.869486 -89.819631 9.007627 6.545904 -108.040738 8.561886 6.673739 -104.169933 -0.000001 -0.000000 -0.000000 1.160377 7.315409 -94.148400 8.017693 2.700472 -99.510699 10.792524 5.665878 -124.703955 0.000001 0.000000 0.000001 1.374563 4.797154 -2.767219 -49.605639 27.382136 64.510788 0.000039 119.840860 -0.000041 -6.244129 18.539326 -28.605266 2.101977 -10.083015 3.633756 25.660792 -30.716689 6.844859 36.126295 -53.497853 18.680844 0.000000 0.000001 0.000004 9.556172 -7.137704 86.157932 10.350207 -6.061988 119.375560 9.118081 -6.602320 108.238862 0.000000 0.000000 -0.000001 6.610156 -6.940051 87.289428 9.494165 -6.467125 111.542604 9.295809 -6.532965 109.815338 -0.000000 -0.000000 -0.000000 1.946420 -7.142805 92.181155 8.379091 -6.800016 101.912344 8.643643 -6.731594 104.171655 -0.000000 -0.000000 0.000000 -2.850690 -7.674967 94.127493 8.100966 -6.852417 99.572663 10.897919 -5.720985 124.707766 -0.000000 0.000000 -0.000002 -30.890743 -3.704530 10.550282 29.163320 0.276518 2.504390 5.925774 -0.091797 -13.176211 -0.000019 -0.000003 0.000005 0.000000 -0.000002 -0.000000 11.976185 -15.214253 -9.444418 24.711017 -3.070189 -0.855998 -31.133382 -5.820612 14.083957 -1.000863 0.000029 0.000003 -0.000000 0.000000 -0.000000 
